<?xml version="1.0" standalone="no"?>
<!DOCTYPE svg PUBLIC "-//W3C//DTD SVG 20010904//EN"
 "http://www.w3.org/TR/2001/REC-SVG-20010904/DTD/svg10.dtd">
<svg version="1.0" xmlns="http://www.w3.org/2000/svg"
 width="465.000000pt" height="465.000000pt" viewBox="0 0 465.000000 465.000000"
 preserveAspectRatio="xMidYMid meet">
<metadata>
Created by potrace 1.14, written by Peter Selinger 2001-2017
</metadata>
<g transform="translate(0.000000,465.000000) scale(0.100000,-0.100000)"
fill="#000000" stroke="none">
<path d="M0 2325 l0 -2325 2325 0 2325 0 0 2325 0 2325 -2325 0 -2325 0 0
-2325z m990 10 l0 -1245 808 0 807 1 -35 29 -34 30 -743 0 -743 0 0 1215 0
1215 50 0 50 0 0 -1160 0 -1160 623 0 622 0 -30 25 c-16 13 -34 25 -40 25 -5
0 -257 2 -560 3 l-550 2 -3 1133 -2 1132 54 0 55 0 -2 -1077 -2 -1078 507 -2
508 -2 177 -138 c98 -75 227 -175 287 -220 l108 -83 -1006 0 -1006 0 0 1300 0
1300 50 0 50 0 0 -1245z m2223 1224 c205 -41 423 -165 542 -307 l28 -33 -33
-34 -33 -34 -56 51 c-129 118 -246 185 -408 235 -81 24 -102 27 -263 27 -152
0 -186 -2 -259 -22 -290 -79 -549 -302 -681 -585 -79 -169 -105 -327 -97 -577
7 -231 50 -383 153 -549 l27 -45 -103 80 c-117 90 -122 97 -161 289 -27 129
-29 421 -4 560 44 248 147 439 340 637 172 176 380 283 625 321 82 13 288 6
383 -14z m26 -178 c138 -41 242 -101 382 -223 l54 -47 -34 -35 c-19 -20 -40
-36 -46 -36 -6 0 -24 14 -41 31 -125 132 -363 229 -565 229 -233 0 -429 -81
-601 -248 -121 -117 -196 -240 -245 -399 -25 -83 -27 -99 -27 -303 -1 -180 2
-226 18 -285 76 -286 298 -523 576 -613 281 -92 613 -24 823 168 30 27 58 50
62 50 5 0 23 -15 41 -34 l33 -34 -56 -52 c-103 -95 -227 -167 -353 -208 -218
-71 -499 -52 -694 46 -67 33 -230 155 -289 217 -54 55 -140 180 -181 263 -15
29 -39 96 -54 150 -26 93 -27 107 -27 327 0 204 3 239 22 311 33 123 66 197
139 306 149 224 365 378 607 433 97 22 360 14 456 -14z m-34 -171 c119 -38
249 -114 319 -189 l30 -31 -34 -35 c-19 -19 -38 -35 -44 -35 -5 0 -34 24 -65
54 -151 143 -420 194 -647 122 -143 -46 -285 -157 -375 -294 -94 -144 -124
-270 -116 -497 6 -176 27 -263 87 -366 71 -119 185 -226 310 -289 246 -123
565 -79 772 108 l40 37 34 -40 33 -40 -27 -29 c-46 -48 -159 -123 -235 -155
-197 -81 -443 -80 -633 4 -169 75 -335 237 -414 406 -55 119 -72 207 -74 379
-2 245 35 389 138 544 126 189 301 312 516 362 86 20 298 11 385 -16z m545
-1685 l34 -35 -40 -41 c-56 -58 -179 -150 -265 -197 -153 -83 -312 -122 -498
-122 l-106 0 -83 66 c-46 37 -81 68 -79 70 2 3 46 -3 98 -12 119 -21 299 -14
414 16 152 39 358 159 454 264 14 14 27 26 31 26 3 0 21 -16 40 -35z"/>
</g>
</svg>
